<svg width="172" height="25" viewBox="0 0 172 25" fill="none" xmlns="http://www.w3.org/2000/svg">
<path d="M0.5 24.2666V0.993874H10.5455C12.2727 0.993874 13.7841 1.30827 15.0795 1.93706C16.375 2.56584 17.3826 3.47115 18.1023 4.65297C18.822 5.83478 19.1818 7.25145 19.1818 8.90296C19.1818 10.5696 18.8106 11.9749 18.0682 13.1189C17.3333 14.2628 16.2992 15.1265 14.9659 15.7098C13.6402 16.2931 12.0909 16.5848 10.3182 16.5848H4.31818V11.6757H9.04545C9.78788 11.6757 10.4205 11.5848 10.9432 11.403C11.4735 11.2136 11.8788 10.9143 12.1591 10.5052C12.447 10.0961 12.5909 9.56206 12.5909 8.90296C12.5909 8.2363 12.447 7.69463 12.1591 7.27797C11.8788 6.85372 11.4735 6.54312 10.9432 6.34615C10.4205 6.1416 9.78788 6.03933 9.04545 6.03933H6.81818V24.2666H0.5ZM14.1364 13.5848L19.9545 24.2666H13.0909L7.40909 13.5848H14.1364ZM30.2745 24.5848C28.4109 24.5848 26.8048 24.2287 25.4564 23.5166C24.1155 22.7969 23.0814 21.7666 22.3541 20.4257C21.6344 19.0772 21.2745 17.4636 21.2745 15.5848C21.2745 13.7818 21.6382 12.206 22.3655 10.8575C23.0927 9.50903 24.1192 8.45978 25.445 7.70978C26.7708 6.95978 28.3352 6.58478 30.1382 6.58478C31.4564 6.58478 32.6495 6.78933 33.7177 7.19842C34.7859 7.60751 35.6988 8.20221 36.4564 8.98251C37.2139 9.75524 37.7973 10.6946 38.2064 11.8007C38.6155 12.9068 38.82 14.153 38.82 15.5393V16.9939H23.2291V13.5393H33.0473C33.0397 13.0393 32.9109 12.5999 32.6609 12.2211C32.4185 11.8348 32.0889 11.5355 31.6723 11.3234C31.2632 11.1037 30.7973 10.9939 30.2745 10.9939C29.767 10.9939 29.3011 11.1037 28.8768 11.3234C28.4526 11.5355 28.1117 11.831 27.8541 12.2098C27.6041 12.5886 27.4715 13.0318 27.4564 13.5393V17.2666C27.4564 17.8272 27.5738 18.3272 27.8086 18.7666C28.0435 19.206 28.3806 19.5507 28.82 19.8007C29.2594 20.0507 29.7897 20.1757 30.4109 20.1757C30.8427 20.1757 31.2367 20.1151 31.5927 19.9939C31.9564 19.8727 32.267 19.6984 32.5245 19.4711C32.7821 19.2363 32.9715 18.956 33.0927 18.6302H38.82C38.623 19.8424 38.1571 20.8954 37.4223 21.7893C36.6874 22.6757 35.7139 23.3651 34.5018 23.8575C33.2973 24.3424 31.8882 24.5848 30.2745 24.5848ZM57.6542 12.4939H51.8815C51.8512 12.1378 51.7262 11.831 51.5065 11.5734C51.2868 11.3158 51.0027 11.1189 50.6542 10.9825C50.3133 10.8386 49.9345 10.7666 49.5178 10.7666C48.98 10.7666 48.5178 10.8651 48.1315 11.0621C47.7451 11.259 47.5557 11.5393 47.5633 11.903C47.5557 12.1605 47.6656 12.3992 47.8928 12.6189C48.1277 12.8386 48.5784 13.009 49.2451 13.1302L52.7906 13.7666C54.5784 14.0924 55.908 14.6416 56.7792 15.4143C57.658 16.1795 58.1012 17.206 58.1087 18.4939C58.1012 19.7363 57.73 20.8158 56.9951 21.7325C56.2678 22.6416 55.2716 23.3461 54.0065 23.8461C52.7489 24.3386 51.3133 24.5848 49.6997 24.5848C47.033 24.5848 44.9459 24.0393 43.4383 22.9484C41.9383 21.8575 41.1012 20.4181 40.9269 18.6302H47.1542C47.2375 19.1833 47.5103 19.6113 47.9724 19.9143C48.4421 20.2098 49.033 20.3575 49.7451 20.3575C50.3209 20.3575 50.7944 20.259 51.1656 20.0621C51.5444 19.8651 51.7375 19.5848 51.7451 19.2211C51.7375 18.8878 51.5709 18.6227 51.2451 18.4257C50.9269 18.2287 50.4269 18.0696 49.7451 17.9484L46.6542 17.403C44.8739 17.0924 43.5406 16.5014 42.6542 15.6302C41.7678 14.759 41.3284 13.6378 41.336 12.2666C41.3284 11.0545 41.6466 10.028 42.2906 9.18706C42.9421 8.33857 43.8701 7.69463 45.0747 7.25524C46.2868 6.80827 47.7224 6.58478 49.3815 6.58478C51.9042 6.58478 53.8928 7.10751 55.3474 8.15297C56.8095 9.19842 57.5784 10.6454 57.6542 12.4939ZM69.2412 24.5848C67.3473 24.5848 65.7261 24.2098 64.3776 23.4598C63.0291 22.7022 61.995 21.6492 61.2753 20.3007C60.5556 18.9446 60.1958 17.3727 60.1958 15.5848C60.1958 13.7969 60.5556 12.2287 61.2753 10.8802C61.995 9.52418 63.0291 8.47115 64.3776 7.72115C65.7261 6.96357 67.3473 6.58478 69.2412 6.58478C71.1352 6.58478 72.7564 6.96357 74.1049 7.72115C75.4534 8.47115 76.4875 9.52418 77.2072 10.8802C77.9269 12.2287 78.2867 13.7969 78.2867 15.5848C78.2867 17.3727 77.9269 18.9446 77.2072 20.3007C76.4875 21.6492 75.4534 22.7022 74.1049 23.4598C72.7564 24.2098 71.1352 24.5848 69.2412 24.5848ZM69.2867 19.9484C69.817 19.9484 70.2753 19.7704 70.6617 19.4143C71.0481 19.0583 71.3473 18.5507 71.5594 17.8916C71.7716 17.2325 71.8776 16.4484 71.8776 15.5393C71.8776 14.6227 71.7716 13.8386 71.5594 13.1871C71.3473 12.528 71.0481 12.0204 70.6617 11.6643C70.2753 11.3083 69.817 11.1302 69.2867 11.1302C68.7261 11.1302 68.245 11.3083 67.8435 11.6643C67.442 12.0204 67.1352 12.528 66.9231 13.1871C66.7109 13.8386 66.6049 14.6227 66.6049 15.5393C66.6049 16.4484 66.7109 17.2325 66.9231 17.8916C67.1352 18.5507 67.442 19.0583 67.8435 19.4143C68.245 19.7704 68.7261 19.9484 69.2867 19.9484ZM92.4703 16.6302V6.81206H98.7431V24.2666H92.7885V20.9484H92.6067C92.2279 22.0621 91.565 22.9333 90.6181 23.5621C89.6711 24.1833 88.5461 24.4939 87.2431 24.4939C86.0234 24.4939 84.9552 24.2136 84.0385 23.653C83.1294 23.0924 82.4211 22.3196 81.9135 21.3348C81.4135 20.3499 81.1597 19.2211 81.1522 17.9484V6.81206H87.4249V16.6302C87.4325 17.4939 87.6522 18.1719 88.084 18.6643C88.5234 19.1568 89.137 19.403 89.9249 19.403C90.4476 19.403 90.8984 19.2931 91.2772 19.0734C91.6635 18.8461 91.959 18.528 92.1635 18.1189C92.3756 17.7022 92.4779 17.206 92.4703 16.6302ZM102.253 24.2666V6.81206H108.344V10.1302H108.526C108.844 8.90296 109.348 8.00524 110.037 7.43706C110.734 6.86887 111.549 6.58478 112.481 6.58478C112.753 6.58478 113.022 6.60751 113.287 6.65297C113.56 6.69084 113.822 6.74766 114.072 6.82342V12.1757C113.761 12.0696 113.378 11.9901 112.924 11.9371C112.469 11.884 112.079 11.8575 111.753 11.8575C111.14 11.8575 110.587 11.9977 110.094 12.278C109.609 12.5507 109.227 12.9371 108.947 13.4371C108.666 13.9295 108.526 14.509 108.526 15.1757V24.2666H102.253ZM123.857 24.5848C121.964 24.5848 120.342 24.2098 118.994 23.4598C117.645 22.7022 116.611 21.6492 115.892 20.3007C115.172 18.9446 114.812 17.3727 114.812 15.5848C114.812 13.7969 115.172 12.2287 115.892 10.8802C116.611 9.52418 117.645 8.47115 118.994 7.72115C120.342 6.96357 121.964 6.58478 123.857 6.58478C125.57 6.58478 127.051 6.89539 128.301 7.5166C129.558 8.13024 130.532 9.00145 131.221 10.1302C131.911 11.2514 132.259 12.5696 132.267 14.0848H126.448C126.365 13.1681 126.1 12.4711 125.653 11.9939C125.214 11.509 124.645 11.2666 123.948 11.2666C123.403 11.2666 122.926 11.4257 122.517 11.7439C122.107 12.0545 121.789 12.528 121.562 13.1643C121.335 13.7931 121.221 14.5848 121.221 15.5393C121.221 16.4939 121.335 17.2893 121.562 17.9257C121.789 18.5545 122.107 19.028 122.517 19.3461C122.926 19.6568 123.403 19.8121 123.948 19.8121C124.411 19.8121 124.82 19.706 125.176 19.4939C125.532 19.2742 125.82 18.956 126.039 18.5393C126.267 18.1151 126.403 17.5999 126.448 16.9939H132.267C132.244 18.5318 131.892 19.8727 131.21 21.0166C130.528 22.153 129.562 23.0318 128.312 23.653C127.07 24.2742 125.585 24.5848 123.857 24.5848ZM143.538 24.5848C141.675 24.5848 140.069 24.2287 138.72 23.5166C137.379 22.7969 136.345 21.7666 135.618 20.4257C134.898 19.0772 134.538 17.4636 134.538 15.5848C134.538 13.7818 134.902 12.206 135.629 10.8575C136.356 9.50903 137.383 8.45978 138.709 7.70978C140.035 6.95978 141.599 6.58478 143.402 6.58478C144.72 6.58478 145.913 6.78933 146.981 7.19842C148.05 7.60751 148.963 8.20221 149.72 8.98251C150.478 9.75524 151.061 10.6946 151.47 11.8007C151.879 12.9068 152.084 14.153 152.084 15.5393V16.9939H136.493V13.5393H146.311C146.303 13.0393 146.175 12.5999 145.925 12.2211C145.682 11.8348 145.353 11.5355 144.936 11.3234C144.527 11.1037 144.061 10.9939 143.538 10.9939C143.031 10.9939 142.565 11.1037 142.141 11.3234C141.716 11.5355 141.375 11.831 141.118 12.2098C140.868 12.5886 140.735 13.0318 140.72 13.5393V17.2666C140.72 17.8272 140.838 18.3272 141.072 18.7666C141.307 19.206 141.644 19.5507 142.084 19.8007C142.523 20.0507 143.053 20.1757 143.675 20.1757C144.106 20.1757 144.5 20.1151 144.856 19.9939C145.22 19.8727 145.531 19.6984 145.788 19.4711C146.046 19.2363 146.235 18.956 146.356 18.6302H152.084C151.887 19.8424 151.421 20.8954 150.686 21.7893C149.951 22.6757 148.978 23.3651 147.766 23.8575C146.561 24.3424 145.152 24.5848 143.538 24.5848ZM170.918 12.4939H165.145C165.115 12.1378 164.99 11.831 164.77 11.5734C164.551 11.3158 164.266 11.1189 163.918 10.9825C163.577 10.8386 163.198 10.7666 162.782 10.7666C162.244 10.7666 161.782 10.8651 161.395 11.0621C161.009 11.259 160.819 11.5393 160.827 11.903C160.819 12.1605 160.929 12.3992 161.157 12.6189C161.391 12.8386 161.842 13.009 162.509 13.1302L166.054 13.7666C167.842 14.0924 169.172 14.6416 170.043 15.4143C170.922 16.1795 171.365 17.206 171.372 18.4939C171.365 19.7363 170.994 20.8158 170.259 21.7325C169.532 22.6416 168.535 23.3461 167.27 23.8461C166.013 24.3386 164.577 24.5848 162.963 24.5848C160.297 24.5848 158.21 24.0393 156.702 22.9484C155.202 21.8575 154.365 20.4181 154.191 18.6302H160.418C160.501 19.1833 160.774 19.6113 161.236 19.9143C161.706 20.2098 162.297 20.3575 163.009 20.3575C163.585 20.3575 164.058 20.259 164.429 20.0621C164.808 19.8651 165.001 19.5848 165.009 19.2211C165.001 18.8878 164.835 18.6227 164.509 18.4257C164.191 18.2287 163.691 18.0696 163.009 17.9484L159.918 17.403C158.138 17.0924 156.804 16.5014 155.918 15.6302C155.032 14.759 154.592 13.6378 154.6 12.2666C154.592 11.0545 154.91 10.028 155.554 9.18706C156.206 8.33857 157.134 7.69463 158.338 7.25524C159.551 6.80827 160.986 6.58478 162.645 6.58478C165.168 6.58478 167.157 7.10751 168.611 8.15297C170.073 9.19842 170.842 10.6454 170.918 12.4939Z" fill="#EB5757"/>
</svg>
