<svg width="125" height="19" viewBox="0 0 125 19" fill="none" xmlns="http://www.w3.org/2000/svg">
<path d="M0.517045 18V0.545454H7.40341C8.72159 0.545454 9.84659 0.78125 10.7784 1.25284C11.7159 1.71875 12.429 2.38068 12.9176 3.23864C13.4119 4.09091 13.6591 5.09375 13.6591 6.24716C13.6591 7.40625 13.4091 8.40341 12.9091 9.23864C12.4091 10.0682 11.6847 10.7045 10.7358 11.1477C9.79261 11.5909 8.65057 11.8125 7.30966 11.8125H2.69886V8.84659H6.71307C7.41761 8.84659 8.00284 8.75 8.46875 8.55682C8.93466 8.36364 9.28125 8.07386 9.50852 7.6875C9.74148 7.30114 9.85795 6.82102 9.85795 6.24716C9.85795 5.66761 9.74148 5.17898 9.50852 4.78125C9.28125 4.38352 8.93182 4.08239 8.46023 3.87784C7.99432 3.66761 7.40625 3.5625 6.69602 3.5625H4.20739V18H0.517045ZM9.94318 10.0568L14.2812 18H10.2074L5.96307 10.0568H9.94318ZM22.1938 18.2557C20.8472 18.2557 19.6882 17.983 18.7166 17.4375C17.7507 16.8864 17.0063 16.108 16.4836 15.1023C15.9609 14.0909 15.6995 12.8949 15.6995 11.5142C15.6995 10.1676 15.9609 8.9858 16.4836 7.96875C17.0063 6.9517 17.7421 6.15909 18.691 5.59091C19.6455 5.02273 20.7649 4.73864 22.0489 4.73864C22.9126 4.73864 23.7166 4.87784 24.4609 5.15625C25.2109 5.42898 25.8643 5.84091 26.4211 6.39205C26.9836 6.94318 27.4211 7.63636 27.7336 8.47159C28.0461 9.30114 28.2024 10.2727 28.2024 11.3864V12.3835H17.1484V10.1335H24.7847C24.7847 9.6108 24.6711 9.14773 24.4438 8.74432C24.2166 8.34091 23.9012 8.02557 23.4978 7.7983C23.1001 7.56534 22.637 7.44886 22.1086 7.44886C21.5575 7.44886 21.0688 7.5767 20.6427 7.83239C20.2222 8.08239 19.8927 8.42045 19.6541 8.84659C19.4154 9.26705 19.2933 9.7358 19.2876 10.2528V12.392C19.2876 13.0398 19.4069 13.5994 19.6455 14.071C19.8899 14.5426 20.2336 14.9062 20.6768 15.1619C21.12 15.4176 21.6455 15.5455 22.2535 15.5455C22.6569 15.5455 23.0262 15.4886 23.3614 15.375C23.6967 15.2614 23.9836 15.0909 24.2222 14.8636C24.4609 14.6364 24.6427 14.358 24.7677 14.0284L28.1257 14.25C27.9552 15.0568 27.6058 15.7614 27.0774 16.3636C26.5546 16.9602 25.8785 17.4261 25.0489 17.7614C24.2251 18.0909 23.2734 18.2557 22.1938 18.2557ZM41.7037 8.64205L38.3799 8.84659C38.323 8.5625 38.2009 8.30682 38.0134 8.07955C37.8259 7.84659 37.5787 7.66193 37.2719 7.52557C36.9708 7.38352 36.61 7.3125 36.1895 7.3125C35.627 7.3125 35.1526 7.43182 34.7662 7.67045C34.3799 7.90341 34.1867 8.21591 34.1867 8.60795C34.1867 8.92045 34.3117 9.18466 34.5617 9.40057C34.8117 9.61648 35.2407 9.78977 35.8486 9.92045L38.2179 10.3977C39.4907 10.6591 40.4395 11.0795 41.0645 11.6591C41.6895 12.2386 42.002 13 42.002 13.9432C42.002 14.8011 41.7492 15.554 41.2435 16.2017C40.7435 16.8494 40.056 17.3551 39.181 17.7188C38.3117 18.0767 37.3088 18.2557 36.1725 18.2557C34.4395 18.2557 33.0588 17.8949 32.0304 17.1733C31.0077 16.446 30.4083 15.4574 30.2321 14.2074L33.8032 14.0199C33.9111 14.5483 34.1725 14.9517 34.5872 15.2301C35.002 15.5028 35.5333 15.6392 36.181 15.6392C36.8174 15.6392 37.3287 15.517 37.7151 15.2727C38.1071 15.0227 38.306 14.7017 38.3117 14.3097C38.306 13.9801 38.1668 13.7102 37.8941 13.5C37.6213 13.2841 37.2009 13.1193 36.6327 13.0057L34.3657 12.554C33.0872 12.2983 32.1355 11.8551 31.5105 11.2244C30.8912 10.5937 30.5816 9.78977 30.5816 8.8125C30.5816 7.97159 30.8088 7.24716 31.2634 6.6392C31.7236 6.03125 32.3685 5.5625 33.198 5.23295C34.0333 4.90341 35.0105 4.73864 36.1299 4.73864C37.7833 4.73864 39.0844 5.08807 40.0333 5.78693C40.9878 6.4858 41.5446 7.4375 41.7037 8.64205ZM50.443 18.2557C49.1191 18.2557 47.9743 17.9744 47.0084 17.4119C46.0481 16.8437 45.3066 16.054 44.7839 15.0426C44.2612 14.0256 43.9998 12.8466 43.9998 11.5057C43.9998 10.1534 44.2612 8.97159 44.7839 7.96023C45.3066 6.94318 46.0481 6.15341 47.0084 5.59091C47.9743 5.02273 49.1191 4.73864 50.443 4.73864C51.7669 4.73864 52.9089 5.02273 53.8691 5.59091C54.8351 6.15341 55.5794 6.94318 56.1021 7.96023C56.6248 8.97159 56.8862 10.1534 56.8862 11.5057C56.8862 12.8466 56.6248 14.0256 56.1021 15.0426C55.5794 16.054 54.8351 16.8437 53.8691 17.4119C52.9089 17.9744 51.7669 18.2557 50.443 18.2557ZM50.4601 15.4432C51.0623 15.4432 51.5652 15.2727 51.9686 14.9318C52.372 14.5852 52.676 14.1136 52.8805 13.517C53.0907 12.9205 53.1959 12.2415 53.1959 11.4801C53.1959 10.7188 53.0907 10.0398 52.8805 9.44318C52.676 8.84659 52.372 8.375 51.9686 8.02841C51.5652 7.68182 51.0623 7.50852 50.4601 7.50852C49.8521 7.50852 49.3407 7.68182 48.926 8.02841C48.5169 8.375 48.2072 8.84659 47.997 9.44318C47.7924 10.0398 47.6902 10.7188 47.6902 11.4801C47.6902 12.2415 47.7924 12.9205 47.997 13.517C48.2072 14.1136 48.5169 14.5852 48.926 14.9318C49.3407 15.2727 49.8521 15.4432 50.4601 15.4432ZM67.8819 12.4261V4.90909H71.5126V18H68.0268V15.6222H67.8904C67.5949 16.3892 67.1035 17.0057 66.416 17.4716C65.7341 17.9375 64.9018 18.1705 63.9188 18.1705C63.0438 18.1705 62.2739 17.9716 61.6091 17.5739C60.9444 17.1761 60.4245 16.6108 60.0495 15.8778C59.6802 15.1449 59.4927 14.267 59.487 13.2443V4.90909H63.1177V12.5966C63.1234 13.3693 63.3307 13.9801 63.7398 14.429C64.1489 14.8778 64.6972 15.1023 65.3847 15.1023C65.8222 15.1023 66.2313 15.0028 66.612 14.804C66.9927 14.5994 67.2995 14.2983 67.5324 13.9006C67.7711 13.5028 67.8876 13.0114 67.8819 12.4261ZM74.6567 18V4.90909H78.1766V7.19318H78.3129C78.5516 6.38068 78.9521 5.76705 79.5146 5.35227C80.0771 4.93182 80.7249 4.72159 81.4578 4.72159C81.6396 4.72159 81.8357 4.73295 82.0459 4.75568C82.2561 4.77841 82.4408 4.80966 82.5999 4.84943V8.07102C82.4294 8.01989 82.1936 7.97443 81.8925 7.93466C81.5913 7.89489 81.3158 7.875 81.0658 7.875C80.5317 7.875 80.0544 7.99148 79.6339 8.22443C79.2192 8.4517 78.8896 8.76989 78.6453 9.17898C78.4067 9.58807 78.2874 10.0597 78.2874 10.5938V18H74.6567ZM90.0224 18.2557C88.6815 18.2557 87.5281 17.9716 86.5622 17.4034C85.6019 16.8295 84.8633 16.0341 84.3463 15.017C83.8349 14 83.5792 12.8295 83.5792 11.5057C83.5792 10.1648 83.8377 8.98864 84.3548 7.97727C84.8775 6.96023 85.619 6.16761 86.5792 5.59943C87.5394 5.02557 88.6815 4.73864 90.0053 4.73864C91.1474 4.73864 92.1474 4.94602 93.0053 5.36079C93.8633 5.77557 94.5423 6.35795 95.0423 7.10795C95.5423 7.85795 95.8178 8.73864 95.869 9.75H92.4428C92.3463 9.09659 92.0906 8.57102 91.6758 8.1733C91.2667 7.76989 90.7298 7.56818 90.065 7.56818C89.5025 7.56818 89.011 7.72159 88.5906 8.02841C88.1758 8.32955 87.8519 8.76989 87.619 9.34943C87.386 9.92898 87.2695 10.6307 87.2695 11.4545C87.2695 12.2898 87.3832 13 87.6105 13.5852C87.8434 14.1705 88.1701 14.6165 88.5906 14.9233C89.011 15.2301 89.5025 15.3835 90.065 15.3835C90.4798 15.3835 90.8519 15.2983 91.1815 15.1278C91.5167 14.9574 91.7923 14.7102 92.0082 14.3864C92.2298 14.0568 92.3747 13.6619 92.4428 13.2017H95.869C95.8122 14.2017 95.5394 15.0824 95.0508 15.8438C94.5678 16.5994 93.9002 17.1903 93.048 17.6165C92.1957 18.0426 91.1872 18.2557 90.0224 18.2557ZM104.399 18.2557C103.053 18.2557 101.894 17.983 100.922 17.4375C99.9563 16.8864 99.212 16.108 98.6892 15.1023C98.1665 14.0909 97.9051 12.8949 97.9051 11.5142C97.9051 10.1676 98.1665 8.9858 98.6892 7.96875C99.212 6.9517 99.9478 6.15909 100.897 5.59091C101.851 5.02273 102.97 4.73864 104.255 4.73864C105.118 4.73864 105.922 4.87784 106.667 5.15625C107.417 5.42898 108.07 5.84091 108.627 6.39205C109.189 6.94318 109.627 7.63636 109.939 8.47159C110.252 9.30114 110.408 10.2727 110.408 11.3864V12.3835H99.354V10.1335H106.99C106.99 9.6108 106.877 9.14773 106.649 8.74432C106.422 8.34091 106.107 8.02557 105.703 7.7983C105.306 7.56534 104.843 7.44886 104.314 7.44886C103.763 7.44886 103.274 7.5767 102.848 7.83239C102.428 8.08239 102.098 8.42045 101.86 8.84659C101.621 9.26705 101.499 9.7358 101.493 10.2528V12.392C101.493 13.0398 101.613 13.5994 101.851 14.071C102.095 14.5426 102.439 14.9062 102.882 15.1619C103.326 15.4176 103.851 15.5455 104.459 15.5455C104.863 15.5455 105.232 15.4886 105.567 15.375C105.902 15.2614 106.189 15.0909 106.428 14.8636C106.667 14.6364 106.848 14.358 106.973 14.0284L110.331 14.25C110.161 15.0568 109.811 15.7614 109.283 16.3636C108.76 16.9602 108.084 17.4261 107.255 17.7614C106.431 18.0909 105.479 18.2557 104.399 18.2557ZM123.909 8.64205L120.585 8.84659C120.529 8.5625 120.407 8.30682 120.219 8.07955C120.032 7.84659 119.784 7.66193 119.478 7.52557C119.176 7.38352 118.816 7.3125 118.395 7.3125C117.833 7.3125 117.358 7.43182 116.972 7.67045C116.585 7.90341 116.392 8.21591 116.392 8.60795C116.392 8.92045 116.517 9.18466 116.767 9.40057C117.017 9.61648 117.446 9.78977 118.054 9.92045L120.424 10.3977C121.696 10.6591 122.645 11.0795 123.27 11.6591C123.895 12.2386 124.208 13 124.208 13.9432C124.208 14.8011 123.955 15.554 123.449 16.2017C122.949 16.8494 122.262 17.3551 121.387 17.7188C120.517 18.0767 119.514 18.2557 118.378 18.2557C116.645 18.2557 115.264 17.8949 114.236 17.1733C113.213 16.446 112.614 15.4574 112.438 14.2074L116.009 14.0199C116.117 14.5483 116.378 14.9517 116.793 15.2301C117.208 15.5028 117.739 15.6392 118.387 15.6392C119.023 15.6392 119.534 15.517 119.921 15.2727C120.313 15.0227 120.512 14.7017 120.517 14.3097C120.512 13.9801 120.372 13.7102 120.1 13.5C119.827 13.2841 119.407 13.1193 118.838 13.0057L116.571 12.554C115.293 12.2983 114.341 11.8551 113.716 11.2244C113.097 10.5937 112.787 9.78977 112.787 8.8125C112.787 7.97159 113.014 7.24716 113.469 6.6392C113.929 6.03125 114.574 5.5625 115.404 5.23295C116.239 4.90341 117.216 4.73864 118.335 4.73864C119.989 4.73864 121.29 5.08807 122.239 5.78693C123.193 6.4858 123.75 7.4375 123.909 8.64205Z" fill="white"/>
</svg>
